<svg width="32" height="32" viewBox="0 0 32 32" fill="none" xmlns="http://www.w3.org/2000/svg">
<g clip-path="url(#clip0_3_44)">
<rect width="32" height="32" rx="16" fill="#316FF6"/>
<path d="M9 16H23" stroke="white" stroke-width="3" stroke-linecap="round" stroke-linejoin="round"/>
<path d="M16 9V23" stroke="white" stroke-width="3" stroke-linecap="round" stroke-linejoin="round"/>
<path d="M15.2322 2.45649C18.0791 2.30743 20.9002 3.06347 23.2911 4.61627C25.682 6.16907 27.5199 8.4389 28.5415 11.1005C29.5631 13.762 29.7159 16.6787 28.9779 19.4324" stroke="white" stroke-width="3" stroke-linecap="round" stroke-linejoin="round"/>
<path d="M24.7021 26.404C22.5181 28.2364 19.8101 29.3304 16.9662 29.5291C14.1222 29.7279 11.2883 29.0212 8.87071 27.5104" stroke="white" stroke-width="3" stroke-linecap="round" stroke-linejoin="round"/>
<path d="M3.78953 21.7667C2.58482 19.1829 2.22901 16.284 2.7731 13.4855" stroke="white" stroke-width="3" stroke-linecap="round" stroke-linejoin="round"/>
<path d="M5.49999 7.62591C6.316 6.50285 7.31982 5.56031 8.3676 4.93339" stroke="white" stroke-width="3" stroke-linecap="round" stroke-linejoin="round"/>
</g>
<defs>
<clipPath id="clip0_3_44">
<rect width="32" height="32" rx="16" fill="white"/>
</clipPath>
</defs>
</svg>
